<?xml version="1.0" encoding="UTF-8" standalone="no"?>
<!-- Created with Inkscape (http://www.inkscape.org/) -->

<svg
   width="139.14291mm"
   height="139.14291mm"
   viewBox="0 0 139.14291 139.14291"
   version="1.1"
   id="svg1"
   xml:space="preserve"
   xmlns="http://www.w3.org/2000/svg"
   xmlns:svg="http://www.w3.org/2000/svg"><defs
     id="defs1" /><g
     id="layer1"
     transform="translate(962.64326,-66.629953)"><g
       id="g565"
       transform="translate(0.35364433,4.7625)"><ellipse
         style="fill:#008000;fill-opacity:1;stroke-width:0.310136;stroke-linecap:round;stroke-linejoin:round"
         id="ellipse106"
         cx="-893.42542"
         cy="131.38844"
         rx="69.520653"
         ry="69.520988" /><ellipse
         style="fill:#ffffff;fill-opacity:1;stroke-width:0.0817022;stroke-linecap:round;stroke-linejoin:round"
         id="ellipse114"
         cx="-893.42548"
         cy="82.239479"
         rx="4.0744066"
         ry="4.0744061" /><ellipse
         style="fill:#810b13;fill-opacity:1;stroke-width:0.40851;stroke-linecap:round;stroke-linejoin:round"
         id="ellipse162"
         cx="-775.11798"
         cy="414.13339"
         rx="20.372032"
         ry="20.37203"
         transform="rotate(22.5)" /><ellipse
         style="fill:#e65a1e;fill-opacity:1;stroke-width:0.245106;stroke-linecap:round;stroke-linejoin:round"
         id="ellipse163"
         cx="-775.11798"
         cy="414.13339"
         rx="12.223218"
         ry="12.223217"
         transform="rotate(22.5)" /><ellipse
         style="fill:#ffff00;fill-opacity:1;stroke-width:0.163404;stroke-linecap:round;stroke-linejoin:round"
         id="ellipse164"
         cx="-775.11798"
         cy="414.13339"
         rx="8.1488123"
         ry="8.1488113"
         transform="rotate(22.5)" /><ellipse
         style="fill:#ffffff;fill-opacity:1;stroke-width:0.0817022;stroke-linecap:round;stroke-linejoin:round"
         id="ellipse165"
         cx="-775.11798"
         cy="414.13339"
         rx="4.0744066"
         ry="4.0744061"
         transform="rotate(22.5)" /><ellipse
         style="fill:#810b13;fill-opacity:1;stroke-width:0.40851;stroke-linecap:round;stroke-linejoin:round"
         id="ellipse146"
         cx="-538.80591"
         cy="675.48914"
         rx="20.372032"
         ry="20.37203"
         transform="rotate(45)" /><ellipse
         style="fill:#e65a1e;fill-opacity:1;stroke-width:0.245106;stroke-linecap:round;stroke-linejoin:round"
         id="ellipse147"
         cx="-538.80591"
         cy="675.48914"
         rx="12.223218"
         ry="12.223217"
         transform="rotate(45)" /><ellipse
         style="fill:#ffff00;fill-opacity:1;stroke-width:0.163404;stroke-linecap:round;stroke-linejoin:round"
         id="ellipse148"
         cx="-538.80591"
         cy="675.48914"
         rx="8.1488123"
         ry="8.1488113"
         transform="rotate(45)" /><ellipse
         style="fill:#ffffff;fill-opacity:1;stroke-width:0.0817022;stroke-linecap:round;stroke-linejoin:round"
         id="ellipse149"
         cx="-538.80591"
         cy="675.48914"
         rx="4.0744066"
         ry="4.0744061"
         transform="rotate(45)" /><ellipse
         style="fill:#810b13;fill-opacity:1;stroke-width:0.40851;stroke-linecap:round;stroke-linejoin:round"
         id="ellipse178"
         cx="-220.46541"
         cy="826.51758"
         rx="20.372032"
         ry="20.37203"
         transform="rotate(67.5)" /><ellipse
         style="fill:#e65a1e;fill-opacity:1;stroke-width:0.245106;stroke-linecap:round;stroke-linejoin:round"
         id="ellipse179"
         cx="-220.46541"
         cy="826.51758"
         rx="12.223218"
         ry="12.223217"
         transform="rotate(67.5)" /><ellipse
         style="fill:#ffff00;fill-opacity:1;stroke-width:0.163404;stroke-linecap:round;stroke-linejoin:round"
         id="ellipse180"
         cx="-220.46541"
         cy="826.51758"
         rx="8.1488123"
         ry="8.1488113"
         transform="rotate(67.5)" /><ellipse
         style="fill:#ffffff;fill-opacity:1;stroke-width:0.0817022;stroke-linecap:round;stroke-linejoin:round"
         id="ellipse181"
         cx="-220.46541"
         cy="826.51758"
         rx="4.0744066"
         ry="4.0744061"
         transform="rotate(67.5)" /><ellipse
         style="fill:#810b13;fill-opacity:1;stroke-width:0.40851;stroke-linecap:round;stroke-linejoin:round"
         id="ellipse138"
         cx="131.4389"
         cy="844.22601"
         rx="20.372032"
         ry="20.37203"
         transform="rotate(90)" /><ellipse
         style="fill:#e65a1e;fill-opacity:1;stroke-width:0.245106;stroke-linecap:round;stroke-linejoin:round"
         id="ellipse139"
         cx="131.4389"
         cy="844.22601"
         rx="12.223218"
         ry="12.223217"
         transform="rotate(90)" /><ellipse
         style="fill:#ffff00;fill-opacity:1;stroke-width:0.163404;stroke-linecap:round;stroke-linejoin:round"
         id="ellipse140"
         cx="131.4389"
         cy="844.22601"
         rx="8.1488123"
         ry="8.1488113"
         transform="rotate(90)" /><ellipse
         style="fill:#ffffff;fill-opacity:1;stroke-width:0.0817022;stroke-linecap:round;stroke-linejoin:round"
         id="ellipse141"
         cx="131.4389"
         cy="844.22601"
         rx="4.0744066"
         ry="4.0744061"
         transform="rotate(90)" /><ellipse
         style="fill:#810b13;fill-opacity:1;stroke-width:0.40851;stroke-linecap:round;stroke-linejoin:round"
         id="ellipse170"
         cx="463.33282"
         cy="725.91858"
         rx="20.372032"
         ry="20.37203"
         transform="rotate(112.5)" /><ellipse
         style="fill:#e65a1e;fill-opacity:1;stroke-width:0.245106;stroke-linecap:round;stroke-linejoin:round"
         id="ellipse171"
         cx="463.33282"
         cy="725.91858"
         rx="12.223218"
         ry="12.223217"
         transform="rotate(112.5)" /><ellipse
         style="fill:#ffff00;fill-opacity:1;stroke-width:0.163404;stroke-linecap:round;stroke-linejoin:round"
         id="ellipse172"
         cx="463.33282"
         cy="725.91858"
         rx="8.1488123"
         ry="8.1488113"
         transform="rotate(112.5)" /><ellipse
         style="fill:#ffffff;fill-opacity:1;stroke-width:0.0817022;stroke-linecap:round;stroke-linejoin:round"
         id="ellipse173"
         cx="463.33282"
         cy="725.91858"
         rx="4.0744066"
         ry="4.0744061"
         transform="rotate(112.5)" /><ellipse
         style="fill:#810b13;fill-opacity:1;stroke-width:0.40851;stroke-linecap:round;stroke-linejoin:round"
         id="ellipse154"
         cx="724.68854"
         cy="489.60645"
         rx="20.372032"
         ry="20.37203"
         transform="rotate(135)" /><ellipse
         style="fill:#e65a1e;fill-opacity:1;stroke-width:0.245106;stroke-linecap:round;stroke-linejoin:round"
         id="ellipse155"
         cx="724.68854"
         cy="489.60645"
         rx="12.223218"
         ry="12.223217"
         transform="rotate(135)" /><ellipse
         style="fill:#ffff00;fill-opacity:1;stroke-width:0.163404;stroke-linecap:round;stroke-linejoin:round"
         id="ellipse156"
         cx="724.68854"
         cy="489.60645"
         rx="8.1488123"
         ry="8.1488113"
         transform="rotate(135)" /><ellipse
         style="fill:#ffffff;fill-opacity:1;stroke-width:0.0817022;stroke-linecap:round;stroke-linejoin:round"
         id="ellipse157"
         cx="724.68854"
         cy="489.60645"
         rx="4.0744066"
         ry="4.0744061"
         transform="rotate(135)" /><ellipse
         style="fill:#810b13;fill-opacity:1;stroke-width:0.40851;stroke-linecap:round;stroke-linejoin:round"
         id="ellipse186"
         cx="875.71698"
         cy="171.26598"
         rx="20.372032"
         ry="20.37203"
         transform="rotate(157.5)" /><ellipse
         style="fill:#e65a1e;fill-opacity:1;stroke-width:0.245106;stroke-linecap:round;stroke-linejoin:round"
         id="ellipse187"
         cx="875.71698"
         cy="171.26598"
         rx="12.223218"
         ry="12.223217"
         transform="rotate(157.5)" /><ellipse
         style="fill:#ffff00;fill-opacity:1;stroke-width:0.163404;stroke-linecap:round;stroke-linejoin:round"
         id="ellipse188"
         cx="875.71698"
         cy="171.26598"
         rx="8.1488123"
         ry="8.1488113"
         transform="rotate(157.5)" /><ellipse
         style="fill:#ffffff;fill-opacity:1;stroke-width:0.0817022;stroke-linecap:round;stroke-linejoin:round"
         id="ellipse189"
         cx="875.71698"
         cy="171.26598"
         rx="4.0744066"
         ry="4.0744061"
         transform="rotate(157.5)" /><ellipse
         style="fill:#810b13;fill-opacity:1;stroke-width:0.40851;stroke-linecap:round;stroke-linejoin:round"
         id="ellipse123"
         cx="-893.42548"
         cy="180.63832"
         rx="20.372032"
         ry="20.37203" /><ellipse
         style="fill:#e65a1e;fill-opacity:1;stroke-width:0.245106;stroke-linecap:round;stroke-linejoin:round"
         id="ellipse124"
         cx="-893.42548"
         cy="180.63832"
         rx="12.223218"
         ry="12.223217" /><ellipse
         style="fill:#ffff00;fill-opacity:1;stroke-width:0.163404;stroke-linecap:round;stroke-linejoin:round"
         id="ellipse125"
         cx="-893.42548"
         cy="180.63832"
         rx="8.1488123"
         ry="8.1488113" /><ellipse
         style="fill:#ffffff;fill-opacity:1;stroke-width:0.0817022;stroke-linecap:round;stroke-linejoin:round"
         id="ellipse126"
         cx="-893.42548"
         cy="180.63832"
         rx="4.0744066"
         ry="4.0744061" /><ellipse
         style="fill:#810b13;fill-opacity:1;stroke-width:0.40851;stroke-linecap:round;stroke-linejoin:round"
         id="ellipse158"
         cx="-775.11798"
         cy="512.53223"
         rx="20.372032"
         ry="20.37203"
         transform="rotate(22.5)" /><ellipse
         style="fill:#e65a1e;fill-opacity:1;stroke-width:0.245106;stroke-linecap:round;stroke-linejoin:round"
         id="ellipse159"
         cx="-775.11798"
         cy="512.53223"
         rx="12.223218"
         ry="12.223217"
         transform="rotate(22.5)" /><ellipse
         style="fill:#ffff00;fill-opacity:1;stroke-width:0.163404;stroke-linecap:round;stroke-linejoin:round"
         id="ellipse160"
         cx="-775.11798"
         cy="512.53223"
         rx="8.1488123"
         ry="8.1488113"
         transform="rotate(22.5)" /><ellipse
         style="fill:#ffffff;fill-opacity:1;stroke-width:0.0817022;stroke-linecap:round;stroke-linejoin:round"
         id="ellipse161"
         cx="-775.11798"
         cy="512.53223"
         rx="4.0744066"
         ry="4.0744061"
         transform="rotate(22.5)" /><ellipse
         style="fill:#810b13;fill-opacity:1;stroke-width:0.40851;stroke-linecap:round;stroke-linejoin:round"
         id="ellipse142"
         cx="-538.80591"
         cy="773.88794"
         rx="20.372032"
         ry="20.37203"
         transform="rotate(45)" /><ellipse
         style="fill:#e65a1e;fill-opacity:1;stroke-width:0.245106;stroke-linecap:round;stroke-linejoin:round"
         id="ellipse143"
         cx="-538.80591"
         cy="773.88794"
         rx="12.223218"
         ry="12.223217"
         transform="rotate(45)" /><ellipse
         style="fill:#ffff00;fill-opacity:1;stroke-width:0.163404;stroke-linecap:round;stroke-linejoin:round"
         id="ellipse144"
         cx="-538.80591"
         cy="773.88794"
         rx="8.1488123"
         ry="8.1488113"
         transform="rotate(45)" /><ellipse
         style="fill:#ffffff;fill-opacity:1;stroke-width:0.0817022;stroke-linecap:round;stroke-linejoin:round"
         id="ellipse145"
         cx="-538.80591"
         cy="773.88794"
         rx="4.0744066"
         ry="4.0744061"
         transform="rotate(45)" /><ellipse
         style="fill:#810b13;fill-opacity:1;stroke-width:0.40851;stroke-linecap:round;stroke-linejoin:round"
         id="ellipse174"
         cx="-220.46541"
         cy="924.91638"
         rx="20.372032"
         ry="20.37203"
         transform="rotate(67.5)" /><ellipse
         style="fill:#e65a1e;fill-opacity:1;stroke-width:0.245106;stroke-linecap:round;stroke-linejoin:round"
         id="ellipse175"
         cx="-220.46541"
         cy="924.91638"
         rx="12.223218"
         ry="12.223217"
         transform="rotate(67.5)" /><ellipse
         style="fill:#ffff00;fill-opacity:1;stroke-width:0.163404;stroke-linecap:round;stroke-linejoin:round"
         id="ellipse176"
         cx="-220.46541"
         cy="924.91638"
         rx="8.1488123"
         ry="8.1488113"
         transform="rotate(67.5)" /><ellipse
         style="fill:#ffffff;fill-opacity:1;stroke-width:0.0817022;stroke-linecap:round;stroke-linejoin:round"
         id="ellipse177"
         cx="-220.46541"
         cy="924.91638"
         rx="4.0744066"
         ry="4.0744061"
         transform="rotate(67.5)" /><ellipse
         style="fill:#810b13;fill-opacity:1;stroke-width:0.40851;stroke-linecap:round;stroke-linejoin:round"
         id="ellipse134"
         cx="131.4389"
         cy="942.62488"
         rx="20.372032"
         ry="20.37203"
         transform="rotate(90)" /><ellipse
         style="fill:#e65a1e;fill-opacity:1;stroke-width:0.245106;stroke-linecap:round;stroke-linejoin:round"
         id="ellipse135"
         cx="131.4389"
         cy="942.62488"
         rx="12.223218"
         ry="12.223217"
         transform="rotate(90)" /><ellipse
         style="fill:#ffff00;fill-opacity:1;stroke-width:0.163404;stroke-linecap:round;stroke-linejoin:round"
         id="ellipse136"
         cx="131.4389"
         cy="942.62488"
         rx="8.1488123"
         ry="8.1488113"
         transform="rotate(90)" /><ellipse
         style="fill:#ffffff;fill-opacity:1;stroke-width:0.0817022;stroke-linecap:round;stroke-linejoin:round"
         id="ellipse137"
         cx="131.4389"
         cy="942.62488"
         rx="4.0744066"
         ry="4.0744061"
         transform="rotate(90)" /><ellipse
         style="fill:#810b13;fill-opacity:1;stroke-width:0.40851;stroke-linecap:round;stroke-linejoin:round"
         id="ellipse166"
         cx="463.33282"
         cy="824.31738"
         rx="20.372032"
         ry="20.37203"
         transform="rotate(112.5)" /><ellipse
         style="fill:#e65a1e;fill-opacity:1;stroke-width:0.245106;stroke-linecap:round;stroke-linejoin:round"
         id="ellipse167"
         cx="463.33282"
         cy="824.31738"
         rx="12.223218"
         ry="12.223217"
         transform="rotate(112.5)" /><ellipse
         style="fill:#ffff00;fill-opacity:1;stroke-width:0.163404;stroke-linecap:round;stroke-linejoin:round"
         id="ellipse168"
         cx="463.33282"
         cy="824.31738"
         rx="8.1488123"
         ry="8.1488113"
         transform="rotate(112.5)" /><ellipse
         style="fill:#ffffff;fill-opacity:1;stroke-width:0.0817022;stroke-linecap:round;stroke-linejoin:round"
         id="ellipse169"
         cx="463.33282"
         cy="824.31738"
         rx="4.0744066"
         ry="4.0744061"
         transform="rotate(112.5)" /><ellipse
         style="fill:#810b13;fill-opacity:1;stroke-width:0.40851;stroke-linecap:round;stroke-linejoin:round"
         id="ellipse150"
         cx="724.68854"
         cy="588.00531"
         rx="20.372032"
         ry="20.37203"
         transform="rotate(135)" /><ellipse
         style="fill:#e65a1e;fill-opacity:1;stroke-width:0.245106;stroke-linecap:round;stroke-linejoin:round"
         id="ellipse151"
         cx="724.68854"
         cy="588.00531"
         rx="12.223218"
         ry="12.223217"
         transform="rotate(135)" /><ellipse
         style="fill:#ffff00;fill-opacity:1;stroke-width:0.163404;stroke-linecap:round;stroke-linejoin:round"
         id="ellipse152"
         cx="724.68854"
         cy="588.00531"
         rx="8.1488123"
         ry="8.1488113"
         transform="rotate(135)" /><ellipse
         style="fill:#ffffff;fill-opacity:1;stroke-width:0.0817022;stroke-linecap:round;stroke-linejoin:round"
         id="ellipse153"
         cx="724.68854"
         cy="588.00531"
         rx="4.0744066"
         ry="4.0744061"
         transform="rotate(135)" /><ellipse
         style="fill:#810b13;fill-opacity:1;stroke-width:0.40851;stroke-linecap:round;stroke-linejoin:round"
         id="ellipse182"
         cx="875.71698"
         cy="269.66483"
         rx="20.372032"
         ry="20.37203"
         transform="rotate(157.5)" /><ellipse
         style="fill:#e65a1e;fill-opacity:1;stroke-width:0.245106;stroke-linecap:round;stroke-linejoin:round"
         id="ellipse183"
         cx="875.71698"
         cy="269.66483"
         rx="12.223218"
         ry="12.223217"
         transform="rotate(157.5)" /><ellipse
         style="fill:#ffff00;fill-opacity:1;stroke-width:0.163404;stroke-linecap:round;stroke-linejoin:round"
         id="ellipse184"
         cx="875.71698"
         cy="269.66483"
         rx="8.1488123"
         ry="8.1488113"
         transform="rotate(157.5)" /><ellipse
         style="fill:#ffffff;fill-opacity:1;stroke-width:0.0817022;stroke-linecap:round;stroke-linejoin:round"
         id="ellipse185"
         cx="875.71698"
         cy="269.66483"
         rx="4.0744066"
         ry="4.0744061"
         transform="rotate(157.5)" /><g
         id="g564"
         transform="translate(0,93.794701)"><path
           id="ellipse558"
           style="fill:#810b13;stroke-width:0.40851;stroke-linecap:round;stroke-linejoin:round"
           d="m -837.63563,312.40223 a 20.372032,20.37203 0 0 0 -12.57578,18.8212 20.372032,20.37203 0 0 0 20.372,20.37221 20.372032,20.37203 0 0 0 13.62265,-5.22486 20.372032,20.37203 0 0 1 -13.62295,-19.2216 20.372032,20.37203 0 0 1 6.75868,-15.09946 20.372032,20.37203 0 0 0 -6.75865,-1.19809 20.372032,20.37203 0 0 0 -7.79595,1.5506 z"
           transform="rotate(22.5)" /><path
           id="ellipse559"
           style="fill:#e65a1e;stroke-width:0.245106;stroke-linecap:round;stroke-linejoin:round"
           d="m -834.51719,319.93079 a 12.223218,12.223217 0 0 0 -7.54579,11.29252 12.223218,12.223217 0 0 0 12.22324,12.22342 12.223218,12.223217 0 0 0 6.19443,-1.69269 20.372032,20.37203 0 0 1 -6.1944,-14.60486 20.372032,20.37203 0 0 1 1.66588,-8.03027 12.223218,12.223217 0 0 0 -1.66572,-0.11884 12.223218,12.223217 0 0 0 -4.67764,0.93072 z"
           transform="rotate(22.5)" /><path
           id="ellipse560"
           style="fill:#ffff00;stroke-width:0.163404;stroke-linecap:round;stroke-linejoin:round"
           d="m -832.95808,323.69483 a 8.1488123,8.1488113 1.3445463e-8 0 0 -5.03,7.52869 8.1488123,8.1488113 1.3445463e-8 0 0 8.14876,8.14879 8.1488123,8.1488113 1.3445463e-8 0 0 3.53756,-0.82709 20.372032,20.37203 0 0 1 -3.53795,-11.39604 20.372032,20.37203 0 0 1 0.4501,-4.04478 8.1488123,8.1488113 1.3445463e-8 0 0 -0.44968,-0.0296 8.1488123,8.1488113 1.3445463e-8 0 0 -3.11879,0.62007 z"
           transform="rotate(22.5)" /><path
           id="ellipse561"
           style="fill:#ffffff;stroke-width:0.0817022;stroke-linecap:round;stroke-linejoin:round"
           d="m -831.39876,327.45935 a 4.0744066,4.0744061 1.3445467e-8 0 0 -2.5151,3.76411 4.0744066,4.0744061 1.3445467e-8 0 0 4.07428,4.07416 4.0744066,4.0744061 1.3445467e-8 0 0 1.56956,-0.31453 20.372032,20.37203 0 0 1 -1.56969,-7.83391 4.0744066,4.0744061 1.3445467e-8 0 0 -1.55905,0.31017 z"
           transform="rotate(22.5)" /></g><ellipse
         style="fill:#49100a;fill-opacity:1;stroke-width:0.987584;stroke-linecap:round;stroke-linejoin:round"
         id="ellipse110"
         cx="-893.42542"
         cy="131.38844"
         rx="49.249886"
         ry="49.249882" /><ellipse
         style="fill:#800c00;fill-opacity:1;stroke-width:0.946539;stroke-linecap:round;stroke-linejoin:round"
         id="ellipse111"
         cx="-893.42542"
         cy="131.38844"
         rx="47.202995"
         ry="47.202991" /></g></g></svg>
