<?xml version="1.0" encoding="UTF-8" standalone="no"?>
<!-- Created with Inkscape (http://www.inkscape.org/) -->

<svg
   width="37.424454mm"
   height="37.424477mm"
   viewBox="0 0 37.424454 37.424477"
   version="1.1"
   id="svg1"
   xml:space="preserve"
   xmlns="http://www.w3.org/2000/svg"
   xmlns:svg="http://www.w3.org/2000/svg"><defs
     id="defs1" /><g
     id="layer1"
     transform="translate(706.16976,-115.78042)"><g
       id="g567"
       transform="translate(-66.278125)"><circle
         style="fill:#000000;fill-opacity:1;stroke-width:0.231503;stroke-linecap:round;stroke-linejoin:round"
         id="path109"
         cx="-621.17944"
         cy="134.49266"
         r="18.71224" /><path
         id="circle156"
         style="fill:#f9a124;fill-opacity:1;stroke-width:0.152656;stroke-linecap:round;stroke-linejoin:round"
         d="m -621.19696,118.04901 -1.1902,2.06142 -0.56192,1.07425 -0.8209,-0.89214 -1.68306,-1.68325 -0.61609,2.29915 -0.26478,1.18292 -1.02371,-0.64916 -2.06125,-1.19019 v 2.38036 l 0.0503,1.21109 -1.15692,-0.362 -2.29895,-0.61627 0.6159,2.29931 0.36201,1.15675 -1.2109,-0.0503 -2.38038,-1.8e-4 1.19019,2.06144 0.64916,1.02371 -1.18292,0.26479 -2.29914,0.6159 1.68324,1.68324 0.89214,0.8209 -1.07424,0.56193 -2.06143,1.18999 2.06143,1.19019 1.07406,0.56194 -0.89196,0.82071 -1.68324,1.68306 2.29914,0.61609 1.18292,0.26478 -0.64916,1.02373 -1.19019,2.06124 h 2.38038 l 1.21109,-0.0503 -0.36202,1.15693 -0.61626,2.29914 2.29913,-0.61608 1.15692,-0.3622 -0.0503,1.21109 -1.9e-4,2.38037 2.06144,-1.19018 1.02371,-0.64917 0.26478,1.18293 0.61591,2.29913 1.68324,-1.68324 0.8209,-0.89213 0.56192,1.07423 1.19002,2.06144 1.19019,-2.06144 0.56192,-1.07405 0.82071,0.89195 1.68306,1.68324 0.61608,-2.29913 0.26479,-1.18293 1.02373,0.64917 2.06124,1.19018 v -2.38037 l -0.0503,-1.21109 1.15693,0.3622 2.29896,0.61608 -0.6159,-2.29914 -0.3622,-1.15693 1.21109,0.0503 2.38036,1.8e-4 -1.19019,-2.06142 -0.64915,-1.02373 1.18291,-0.26478 2.29915,-0.61591 -1.68323,-1.68324 -0.89197,-0.82071 1.07406,-0.56194 2.06144,-1.18999 -2.06144,-1.19019 -1.07424,-0.56193 0.89215,-0.8209 1.68323,-1.68306 -2.29915,-0.61608 -1.18291,-0.26479 0.64915,-1.02371 1.19019,-2.06126 h -2.38036 l -1.21109,0.0503 0.3622,-1.15693 0.61608,-2.29895 -2.29914,0.61609 -1.15693,0.362 0.0503,-1.21109 1.8e-4,-2.38036 -2.06142,1.19019 -1.02373,0.64916 -0.26479,-1.18292 -0.6159,-2.29915 -1.68324,1.68325 -0.82071,0.89195 -0.56192,-1.07406 z" /><path
         id="path158"
         style="fill:#000000;fill-opacity:1;stroke-width:0.0705797;stroke-linecap:round;stroke-linejoin:round"
         d="m -621.19717,119.81656 -0.48633,0.84253 -0.4865,0.84252 h 0.97283 0.97301 l -0.48651,-0.84252 z m -3.79846,0.49994 -0.25171,0.93977 -0.25189,0.93994 0.93976,-0.25189 0.93975,-0.25189 -0.68786,-0.68786 z m 7.59691,0 -0.68786,0.68807 -0.68806,0.68786 0.93975,0.25189 0.93977,0.25189 -0.25171,-0.93994 z m -11.1364,1.46626 v 0.97283 0.973 l 0.84253,-0.48649 0.84253,-0.48651 -0.84253,-0.48632 z m 14.67608,0 -0.84253,0.48651 -0.84271,0.48632 0.84271,0.48651 0.84253,0.48649 v -0.973 z m -17.7156,2.33222 0.2517,0.93975 0.25189,0.93994 0.68788,-0.68805 0.68804,-0.68788 -0.93975,-0.25189 z m 20.75512,0 -0.93975,0.25187 -0.93976,0.25189 0.68786,0.68788 0.68807,0.68805 0.2517,-0.93994 z m -23.08751,3.03953 0.48651,0.8427 0.48651,0.84253 0.48632,-0.84253 0.48651,-0.8427 h -0.97302 z m 23.47389,0 0.48651,0.8427 0.4865,0.84253 0.48651,-0.84253 0.48651,-0.84253 -0.97302,-1.7e-4 z m -23.06044,3.03607 -0.93976,0.25188 -0.93993,0.25171 0.68804,0.68788 0.68805,0.68804 0.25171,-0.93975 z m 24.59302,0 0.2517,0.93976 0.25188,0.93975 0.68787,-0.68804 0.68806,-0.68788 -0.93977,-0.25171 z m -25.28762,3.32921 -0.84252,0.48633 -0.84253,0.48651 0.84253,0.4865 0.84252,0.48651 v -0.97301 z m 25.98203,0 v 0.97284 0.97301 l 0.84252,-0.48651 0.8427,-0.4865 -0.8427,-0.48651 z m -25.79103,3.39538 -0.68805,0.68805 -0.68804,0.68786 0.93993,0.25189 0.93976,0.25171 -0.25189,-0.93975 z m 25.6002,0 -0.25188,0.93976 -0.2517,0.93975 0.93974,-0.25171 0.93977,-0.25189 -0.68806,-0.68786 z m -24.53703,3.23035 -0.48651,0.84271 -0.48651,0.84253 h 0.97283 0.97302 l -0.48651,-0.84271 z m 23.47388,0 -0.4865,0.84271 -0.48651,0.84253 h 0.97301 0.97283 l -0.48632,-0.84253 z m -21.61092,2.84526 -0.25189,0.93976 -0.25188,0.93975 0.93994,-0.25189 0.93975,-0.2517 -0.68804,-0.68805 z m 19.74795,0 -0.68807,0.68787 -0.68786,0.68805 0.93976,0.2517 0.93975,0.25189 -0.25188,-0.93975 z m -17.21202,2.26588 v 0.97301 l -1.8e-4,0.97283 0.84271,-0.4865 0.84253,-0.48633 -0.84253,-0.4865 z m 14.67608,0 -0.84271,0.48651 -0.84253,0.4865 0.84271,0.48633 0.84253,0.4865 v -0.97283 z m -11.64019,1.53258 0.25189,0.93975 0.25171,0.93976 0.68805,-0.68805 0.68786,-0.68788 -0.93975,-0.25187 z m 8.60411,0 -0.93977,0.25171 -0.93975,0.25187 0.68806,0.68788 0.68786,0.68805 0.25189,-0.93976 z m -5.27488,0.69441 0.4865,0.84252 0.48633,0.84272 0.4865,-0.84272 0.48651,-0.84252 h -0.97301 z" /></g></g></svg>
