<?xml version="1.0" encoding="UTF-8" standalone="no"?>
<!-- Created with Inkscape (http://www.inkscape.org/) -->

<svg
   width="51.08577mm"
   height="56.297535mm"
   viewBox="0 0 51.08577 56.297535"
   version="1.1"
   id="svg1"
   xml:space="preserve"
   xmlns="http://www.w3.org/2000/svg"
   xmlns:svg="http://www.w3.org/2000/svg"><defs
     id="defs1" /><g
     id="layer1"
     transform="translate(654.89325,-121.82953)"><g
       id="g575"
       transform="translate(-50.139764)"><circle
         style="fill:#000000;fill-opacity:1;stroke-width:0.156665;stroke-linecap:round;stroke-linejoin:round"
         id="circle155"
         cx="-579.29407"
         cy="134.49266"
         r="12.66315" /><circle
         style="fill:#ff0000;fill-opacity:1;stroke-width:0.15046;stroke-linecap:round;stroke-linejoin:round"
         id="circle151"
         cx="-579.27637"
         cy="134.49266"
         r="12.161626" /><path
         id="path510"
         style="fill:#000000;fill-opacity:1;stroke-width:0.193943;stroke-linecap:round;stroke-linejoin:round"
         d="m -597.08759,144.76584 0.0408,0.39533 h -0.004 l 0.0413,0.3948 h -0.004 l 0.0419,0.39533 h -0.005 l 0.0424,0.39481 h -0.0114 l 0.21911,1.97455 h -0.0284 c 0,0 0.0118,0.0177 0.0346,0.0501 l 0.0367,0.32969 5.2e-4,0.0155 h 5.2e-4 l 0.0413,0.37362 0.003,0.0217 0.0408,0.36329 0.004,0.0315 h 5.2e-4 l 0.0879,0.78962 c 0,0 0.038,0.30965 0.0997,0.83509 l 0.54106,5.09013 c 0,0 0.25794,3.13724 -5.11597,6.56704 -3.01104,1.92175 -4.63227,5.58149 -3.30626,8.22068 3.28374,6.53577 11.90115,7.11843 25.13542,7.11843 13.23428,0 21.80498,-0.51646 25.09976,-7.57938 1.20274,-2.5783 -0.54326,-5.83798 -3.55431,-7.75973 -5.3739,-3.4298 -5.11648,-6.56704 -5.11648,-6.56704 l 0.54105,-5.09013 c 0.0617,-0.52544 0.10025,-0.83509 0.10025,-0.83509 l 0.0879,-0.78962 0.003,-0.0315 0.0403,-0.36329 h 5.2e-4 l 0.003,-0.0217 0.0419,-0.37362 10e-4,-0.0155 0.0367,-0.32969 v -5.2e-4 c 0.0224,-0.0324 0.0341,-0.0496 0.0341,-0.0496 h -0.0284 l 0.21962,-1.97455 h -0.0119 l 0.0429,-0.39533 h -0.005 l 0.0419,-0.39481 h -0.004 l 0.0413,-0.3948 h -0.004 l 0.0403,-0.39533 h -17.79427 z m 12.37496,13.52166 c 0.61521,0.034 1.18948,0.12457 1.62729,0.30592 0.82554,0.34194 1.89549,1.89549 1.89549,1.89549 0,0 -3.93524,0.7254 -5.68647,0 -0.82554,-0.34195 -1.89549,-1.89549 -1.89549,-1.89549 0,0 2.21356,-0.40793 4.05918,-0.30592 z m 10.8722,0 c 1.84563,-0.10201 4.0597,0.30592 4.0597,0.30592 0,0 -1.07045,1.55354 -1.896,1.89549 -1.75124,0.7254 -5.68648,0 -5.68648,0 0,0 1.06995,-1.55355 1.89549,-1.89549 0.43781,-0.18135 1.01209,-0.27192 1.62729,-0.30592 z" /><path
         id="path204"
         style="fill:#089247;fill-opacity:1;stroke-width:0.186142;stroke-linecap:round;stroke-linejoin:round"
         d="m -596.35378,145.44642 0.55759,5.30769 c 0,0 1.06342,8.59528 0.96376,11.7662 -0.12579,4.00384 -4.12731,8.52172 -1.91823,11.86336 2.22868,3.37128 7.7581,2.41957 11.76983,2.90783 1.87841,0.22861 3.79615,0.44605 5.70456,0.49816 1.90842,-0.0521 3.82565,-0.26955 5.70405,-0.49816 4.01174,-0.48826 9.54167,0.46345 11.77034,-2.90783 2.20909,-3.34164 -1.79293,-7.85952 -1.91875,-11.86336 -0.0997,-3.17092 0.96377,-11.7662 0.96377,-11.7662 l 0.5581,-5.30769 -17.07751,0.75913 z m 11.64115,12.84108 c 0.61521,0.034 1.18948,0.12457 1.62729,0.30592 0.82554,0.34194 1.89549,1.89549 1.89549,1.89549 0,0 -3.93524,0.7254 -5.68647,0 -0.82554,-0.34195 -1.89549,-1.89549 -1.89549,-1.89549 0,0 2.21356,-0.40793 4.05918,-0.30592 z m 10.8722,0 c 1.84563,-0.10201 4.0597,0.30592 4.0597,0.30592 0,0 -1.07045,1.55354 -1.896,1.89549 -1.75124,0.7254 -5.68648,0 -5.68648,0 0,0 1.06995,-1.55355 1.89549,-1.89549 0.43781,-0.18135 1.01209,-0.27192 1.62729,-0.30592 z" /><path
         id="path209"
         style="fill:#000000;fill-opacity:1;stroke-width:0.186142;stroke-linecap:round;stroke-linejoin:round"
         d="m -596.03444,148.85854 c 0,0 4.1164,6.04962 7.26273,7.58225 1.14172,0.55617 2.5855,-0.0205 3.791,0.37909 2.0983,0.69545 5.68664,3.41194 5.68664,3.41194 0,0 0.006,-0.005 0.0177,-0.0133 0.0115,0.009 0.0177,0.0133 0.0177,0.0133 0,0 3.58834,-2.71649 5.68663,-3.41194 1.20551,-0.39955 2.64929,0.17708 3.79103,-0.37909 3.14633,-1.53263 7.26273,-7.58225 7.26273,-7.58225 h -16.75808 z" /><path
         id="path210"
         style="fill:#089247;fill-opacity:1;stroke-width:0.186142;stroke-linecap:round;stroke-linejoin:round"
         d="m -592.18366,148.85854 c 0,0 1.49755,6.79192 3.41195,5.68664 1.5164,-0.8755 -2.27463,-2.65376 9.47764,-2.65376 h 0.0177 0.0177 c 11.75229,0 7.96123,1.77826 9.47766,2.65376 1.9144,1.10528 3.41195,-5.68664 3.41195,-5.68664 h -12.9073 z" /><path
         id="path208"
         style="fill:#f6a31f;fill-opacity:1;stroke-width:0.186142;stroke-linecap:round;stroke-linejoin:round"
         d="m -592.56293,148.85854 13.26886,10.61512 0.0177,-0.0141 0.0177,0.0141 13.26888,-10.61512 h -13.28657 z" /><path
         id="path211"
         style="fill:#ee1c2a;fill-opacity:1;stroke-width:0.186142;stroke-linecap:round;stroke-linejoin:round"
         d="m -583.08529,148.85854 v 5.68664 l 3.79122,-3.03286 0.0177,0.0141 0.0177,-0.0141 3.79123,3.03286 v -5.68664 h -3.80886 z" /><path
         id="path205"
         style="fill:#b01f22;fill-opacity:1;stroke-width:0.186142;stroke-linecap:round;stroke-linejoin:round"
         d="m -596.21761,146.96314 0.4214,3.79103 5.12889,-1.89563 11.37325,1.89563 0.0177,-0.003 0.0177,0.003 11.37327,-1.89563 5.12889,1.89563 0.42139,-3.79103 h -16.94118 z" /><path
         id="path214"
         style="fill:#000000;fill-opacity:1;stroke-width:0.186142;stroke-linecap:round;stroke-linejoin:round"
         d="m -595.74503,151.13341 0.5643,5.30717 c 0,0 3.91472,3.74432 6.40892,4.53977 2.64866,0.8447 8.34006,0.01 8.34006,0.01 l -3.26647,5.30769 h 4.42195 4.42144 l -3.26647,-5.30769 c 0,0 5.69137,0.83529 8.34006,-0.01 2.49419,-0.79545 6.40943,-4.53977 6.40943,-4.53977 l 0.56379,-5.30717 c 0,0 -4.08581,5.14806 -6.97322,6.44457 -1.74261,0.78248 -3.92456,-0.13599 -5.70301,0.5612 -0.87972,0.34486 -1.3627,1.41227 -2.25826,1.7136 -0.48467,0.16308 -1.00918,0.24256 -1.53376,0.24029 -0.52457,0.003 -1.0496,-0.0773 -1.53427,-0.24029 -0.89556,-0.30133 -1.37855,-1.36874 -2.25826,-1.7136 -1.77844,-0.69719 -3.96042,0.22128 -5.70301,-0.5612 -2.88742,-1.29651 -6.97322,-6.44457 -6.97322,-6.44457 z m 11.0324,7.15409 c 0.61521,0.034 1.18948,0.12457 1.62729,0.30592 0.82554,0.34194 1.89549,1.89549 1.89549,1.89549 0,0 -3.93524,0.7254 -5.68647,0 -0.82554,-0.34195 -1.89549,-1.89549 -1.89549,-1.89549 0,0 2.21356,-0.40793 4.05918,-0.30592 z m 10.8722,0 c 1.84563,-0.10201 4.0597,0.30592 4.0597,0.30592 0,0 -1.07045,1.55354 -1.896,1.89549 -1.75124,0.7254 -5.68648,0 -5.68648,0 0,0 1.06995,-1.55355 1.89549,-1.89549 0.43781,-0.18135 1.01209,-0.27192 1.62729,-0.30592 z" /><path
         id="path212"
         style="fill:#000000;fill-opacity:1;stroke-width:0.186142;stroke-linecap:round;stroke-linejoin:round"
         d="m -579.29407,153.20498 -1.34041,1.3402 1.34041,1.34041 0.0177,-0.0177 0.0177,0.0177 1.34041,-1.34041 -1.34041,-1.3402 -0.0177,0.0177 z" /><path
         id="path216"
         style="fill:#670c09;fill-opacity:1;stroke-width:0.227976;stroke-linecap:round;stroke-linejoin:round"
         d="m -582.0364,167.81368 c -0.0338,-0.001 -0.0676,-0.001 -0.1011,1.9e-4 -1.1377,0.0558 -2.84322,1.89561 -2.84322,1.89561 h 5.70427 5.70427 c 0,0 -1.70552,-1.83978 -2.84322,-1.89561 -0.0335,-0.001 -0.0672,-0.001 -0.10109,-1.9e-4 v 1.9e-4 c -1.04963,0.0442 -2.24555,1.51673 -2.74233,1.51673 -0.006,0 -0.0115,-3.9e-4 -0.0177,-7.6e-4 -0.006,3.7e-4 -0.0115,7.6e-4 -0.0177,7.6e-4 -0.49677,0 -1.6927,-1.47255 -2.74232,-1.51673 z" /><path
         id="path217"
         style="fill:#ff0000;fill-opacity:1;stroke-width:0.227976;stroke-linecap:round;stroke-linejoin:round"
         d="m -584.98071,169.70948 c 0,0 3.72488,1.51633 5.68664,1.51633 0.006,0 0.0115,3e-5 0.0177,0 0.006,3e-5 0.0115,0 0.0177,0 1.96177,0 5.68663,-1.51633 5.68663,-1.51633 h -5.70426 z" /><path
         id="path218"
         style="fill:#f9f9f9;fill-opacity:1;stroke-width:0.186142;stroke-linecap:round;stroke-linejoin:round"
         d="m -596.24739,146.58405 0.40905,3.79103 5.17102,-1.89561 11.37325,1.89561 0.0177,-0.003 0.0177,0.003 11.37327,-1.89561 5.17101,1.89561 0.40905,-3.79103 h -16.97102 z" /><path
         id="path219"
         style="fill:#b01f22;fill-opacity:1;stroke-width:0.186142;stroke-linecap:round;stroke-linejoin:round"
         d="m -596.28245,146.20497 0.40181,3.79103 5.21332,-1.89561 11.37325,1.89561 0.0177,-0.003 0.0177,0.003 11.37327,-1.89561 5.21332,1.89561 0.40181,-3.79103 h -17.00609 z" /><path
         id="path220"
         style="fill:#f9f9f9;fill-opacity:1;stroke-width:0.186142;stroke-linecap:round;stroke-linejoin:round"
         d="m -596.31831,145.82589 0.39554,3.79103 5.25545,-1.89561 11.37325,1.89561 0.0177,-0.003 0.0177,0.003 11.37327,-1.89561 5.25545,1.89561 0.39554,-3.79103 h -17.04195 z" /><path
         id="path221"
         style="fill:#b01f22;fill-opacity:1;stroke-width:0.186142;stroke-linecap:round;stroke-linejoin:round"
         d="m -596.35396,145.44661 0.38907,3.79122 5.29757,-1.89561 11.37325,1.89561 0.0177,-0.003 0.0177,0.003 11.37327,-1.89561 5.29757,1.89561 0.38907,-3.79122 h -17.0776 z" /><path
         id="path224"
         style="fill:#ffffff;fill-opacity:1;stroke-width:0.186142;stroke-linecap:round;stroke-linejoin:round"
         d="m -595.18079,156.44083 c 0,0 0.24724,3.01103 -4.91049,6.30286 -2.88991,1.84443 -4.87115,5.8902 -3.34314,8.53679 2.80644,4.8609 5.35874,5.70929 24.14035,6.64999 v -0.14557 c -3.1837,-0.37078 -10.32153,-1.30965 -13.2683,-3.05696 -2.77758,-1.79985 -2.7624,-4.11778 -1.98999,-8.54987 0.77241,-4.43207 -0.17785,-5.97195 -0.62843,-9.73724 z" /><circle
         style="fill:#ff0000;fill-opacity:1;stroke-width:0.133788;stroke-linecap:round;stroke-linejoin:round"
         id="path226"
         cx="-586.50226"
         cy="169.70952"
         r="1.5215421" /><path
         id="path215"
         style="fill:#089247;fill-opacity:1;stroke-width:0.186142;stroke-linecap:round;stroke-linejoin:round"
         d="m -579.29407,160.23182 -3.79122,5.68664 c 0,0 2.5025,-0.75817 3.79122,-0.75817 0.006,0 0.0115,-3e-5 0.0177,0 0.006,-3e-5 0.0115,0 0.0177,0 1.28872,0 3.79123,0.75817 3.79123,0.75817 l -3.79123,-5.68664 -0.0177,0.0265 z" /><path
         id="path276"
         style="fill:#ffffff;fill-opacity:1;stroke-width:0.186142;stroke-linecap:round;stroke-linejoin:round"
         d="m -563.3719,156.44083 c 0,0 -0.24724,3.01103 4.91049,6.30286 2.88991,1.84443 4.87115,5.8902 3.34314,8.53679 -2.80644,4.8609 -5.39418,5.70929 -24.1758,6.64999 v -0.14557 c 3.18368,-0.37078 10.35698,-1.30965 13.30375,-3.05696 2.77758,-1.79985 2.76241,-4.11778 1.98999,-8.54987 -0.77241,-4.43207 0.17784,-5.97195 0.62843,-9.73724 z" /><circle
         style="fill:#ff0000;fill-opacity:1;stroke-width:0.133788;stroke-linecap:round;stroke-linejoin:round"
         id="circle276"
         cx="572.05054"
         cy="169.70952"
         r="1.5215421"
         transform="scale(-1,1)" /><rect
         style="fill:#000000;fill-opacity:1;stroke-width:0.186142;stroke-linecap:round;stroke-linejoin:round"
         id="rect4"
         width="34.155067"
         height="4.939692"
         x="-596.35394"
         y="140.50694" /><rect
         style="fill:#f3fff9;fill-opacity:1;stroke-width:0.169998;stroke-linecap:round;stroke-linejoin:round"
         id="rect5"
         width="34.155067"
         height="4.1200409"
         x="-596.35394"
         y="140.50694" /><rect
         style="fill:#19441f;fill-opacity:1;stroke-width:0.155051;stroke-linecap:round;stroke-linejoin:round"
         id="rect6"
         width="34.155067"
         height="3.4273527"
         x="-596.35394"
         y="140.50694" /><rect
         style="fill:#f9fff8;fill-opacity:1;stroke-width:0.138477;stroke-linecap:round;stroke-linejoin:round"
         id="rect7"
         width="34.155067"
         height="2.7338216"
         x="-596.35394"
         y="140.50694" /><circle
         style="fill:#000000;fill-opacity:1;stroke-width:0.0397933;stroke-linecap:round;stroke-linejoin:round"
         id="circle153"
         cx="-584.849"
         cy="129.34605"
         r="3.2164674" /><circle
         style="fill:#000000;fill-opacity:1;stroke-width:0.0397933;stroke-linecap:round;stroke-linejoin:round"
         id="circle239"
         cx="574.16235"
         cy="129.34605"
         r="3.2164674"
         transform="scale(-1,1)" /><circle
         style="fill:#000000;fill-opacity:1;stroke-width:0.0986479;stroke-linecap:round;stroke-linejoin:round"
         id="circle154"
         cx="-579.27637"
         cy="134.49266"
         r="7.9737034" /><circle
         style="fill:#f6a31f;fill-opacity:1;stroke-width:0.092133;stroke-linecap:round;stroke-linejoin:round"
         id="circle110"
         cx="-579.27637"
         cy="134.49266"
         r="7.4471021" /><rect
         style="fill:#eb1f28;fill-opacity:1;stroke-width:0.116779;stroke-linecap:round;stroke-linejoin:round"
         id="rect8"
         width="34.155067"
         height="1.9441892"
         x="-596.35394"
         y="140.50694" /><rect
         style="fill:#000000;fill-opacity:1;stroke-width:0.194711;stroke-linecap:round;stroke-linejoin:round"
         id="rect107"
         width="36.392029"
         height="5.072691"
         x="-597.47241"
         y="135.9537"
         ry="2.5363455" /><circle
         style="fill:#000000;fill-opacity:1;stroke-width:0.25463;stroke-linecap:round;stroke-linejoin:round"
         id="circle240"
         cx="562.65753"
         cy="145.44655"
         r="4.9395871"
         transform="scale(-1,1)" /><rect
         style="fill:#f4a41d;fill-opacity:1;stroke-width:0.168783;stroke-linecap:round;stroke-linejoin:round"
         id="rect10"
         width="35.115349"
         height="3.9502923"
         x="-596.83405"
         y="136.51491"
         ry="1.9751462" /><circle
         style="fill:#e92024;fill-opacity:1;stroke-width:0.216239;stroke-linecap:round;stroke-linejoin:round"
         id="circle241"
         cx="562.65753"
         cy="145.44655"
         r="4.1948595"
         transform="scale(-1,1)" /><circle
         style="fill:#fefefe;fill-opacity:1;stroke-width:0.136463;stroke-linecap:round;stroke-linejoin:round"
         id="circle242"
         cx="562.65753"
         cy="145.44655"
         r="2.647258"
         transform="scale(-1,1)" /><circle
         style="fill:#000000;fill-opacity:1;stroke-width:0.103701;stroke-linecap:round;stroke-linejoin:round"
         id="circle243"
         cx="562.65753"
         cy="145.44655"
         r="2.0117249"
         transform="scale(-1,1)" /><circle
         style="fill:#000000;fill-opacity:1;stroke-width:0.0509079;stroke-linecap:round;stroke-linejoin:round"
         id="circle10"
         cx="-579.27637"
         cy="138.49005"
         r="0.98757142" /><circle
         style="fill:#e92024;fill-opacity:1;stroke-width:0.0386863;stroke-linecap:round;stroke-linejoin:round"
         id="circle11"
         cx="-579.27637"
         cy="138.49005"
         r="0.75048274" /><circle
         style="fill:#000000;fill-opacity:1;stroke-width:0.0509079;stroke-linecap:round;stroke-linejoin:round"
         id="circle14"
         cx="-583.22668"
         cy="138.49005"
         r="0.98757142" /><circle
         style="fill:#e92024;fill-opacity:1;stroke-width:0.0386863;stroke-linecap:round;stroke-linejoin:round"
         id="circle15"
         cx="-583.22668"
         cy="138.49005"
         r="0.75048274" /><circle
         style="fill:#000000;fill-opacity:1;stroke-width:0.0509079;stroke-linecap:round;stroke-linejoin:round"
         id="circle18"
         cx="-587.177"
         cy="138.49005"
         r="0.98757142" /><circle
         style="fill:#e92024;fill-opacity:1;stroke-width:0.0386863;stroke-linecap:round;stroke-linejoin:round"
         id="circle19"
         cx="-587.177"
         cy="138.49005"
         r="0.75048274" /><circle
         style="fill:#000000;fill-opacity:1;stroke-width:0.0509079;stroke-linecap:round;stroke-linejoin:round"
         id="circle20"
         cx="-587.177"
         cy="138.49005"
         r="0.98757142" /><circle
         style="fill:#e92024;fill-opacity:1;stroke-width:0.0386863;stroke-linecap:round;stroke-linejoin:round"
         id="circle21"
         cx="-587.177"
         cy="138.49005"
         r="0.75048274" /><circle
         style="fill:#000000;fill-opacity:1;stroke-width:0.0509079;stroke-linecap:round;stroke-linejoin:round"
         id="circle22"
         cx="-591.12732"
         cy="138.49005"
         r="0.98757142" /><circle
         style="fill:#e92024;fill-opacity:1;stroke-width:0.0386863;stroke-linecap:round;stroke-linejoin:round"
         id="circle23"
         cx="-591.12732"
         cy="138.49005"
         r="0.75048274" /><circle
         style="fill:#000000;fill-opacity:1;stroke-width:0.0509079;stroke-linecap:round;stroke-linejoin:round"
         id="circle24"
         cx="-591.12732"
         cy="138.49005"
         r="0.98757142" /><circle
         style="fill:#e92024;fill-opacity:1;stroke-width:0.0386863;stroke-linecap:round;stroke-linejoin:round"
         id="circle25"
         cx="-591.12732"
         cy="138.49005"
         r="0.75048274" /><circle
         style="fill:#000000;fill-opacity:1;stroke-width:0.0509079;stroke-linecap:round;stroke-linejoin:round"
         id="circle26"
         cx="-595.07758"
         cy="138.49005"
         r="0.98757142" /><circle
         style="fill:#e92024;fill-opacity:1;stroke-width:0.0386863;stroke-linecap:round;stroke-linejoin:round"
         id="circle27"
         cx="-595.07758"
         cy="138.49005"
         r="0.75048274" /><circle
         style="fill:#000000;fill-opacity:1;stroke-width:0.0509079;stroke-linecap:round;stroke-linejoin:round"
         id="circle28"
         cx="-595.07758"
         cy="138.49005"
         r="0.98757142" /><circle
         style="fill:#e92024;fill-opacity:1;stroke-width:0.0386863;stroke-linecap:round;stroke-linejoin:round"
         id="circle29"
         cx="-595.07758"
         cy="138.49005"
         r="0.75048274" /><circle
         style="fill:#000000;fill-opacity:1;stroke-width:0.0465353;stroke-linecap:round;stroke-linejoin:round"
         id="circle244"
         cx="574.35071"
         cy="133.19719"
         r="0.90274733"
         transform="scale(-1,1)" /><circle
         style="fill:#000000;fill-opacity:1;stroke-width:0.0509079;stroke-linecap:round;stroke-linejoin:round"
         id="circle30"
         cx="-563.47516"
         cy="138.49005"
         r="0.98757142" /><circle
         style="fill:#e92024;fill-opacity:1;stroke-width:0.0330002;stroke-linecap:round;stroke-linejoin:round"
         id="circle245"
         cx="574.35071"
         cy="133.19719"
         r="0.64017779"
         transform="scale(-1,1)" /><circle
         style="fill:#e92024;fill-opacity:1;stroke-width:0.0386863;stroke-linecap:round;stroke-linejoin:round"
         id="circle31"
         cx="-563.47516"
         cy="138.49005"
         r="0.75048274" /><circle
         style="fill:#000000;fill-opacity:1;stroke-width:0.0509079;stroke-linecap:round;stroke-linejoin:round"
         id="circle32"
         cx="-567.42548"
         cy="138.49005"
         r="0.98757142" /><circle
         style="fill:#e92024;fill-opacity:1;stroke-width:0.0386863;stroke-linecap:round;stroke-linejoin:round"
         id="circle33"
         cx="-567.42548"
         cy="138.49005"
         r="0.75048274" /><circle
         style="fill:#000000;fill-opacity:1;stroke-width:0.0509079;stroke-linecap:round;stroke-linejoin:round"
         id="circle34"
         cx="-571.37579"
         cy="138.49005"
         r="0.98757142" /><circle
         style="fill:#e92024;fill-opacity:1;stroke-width:0.0386863;stroke-linecap:round;stroke-linejoin:round"
         id="circle35"
         cx="-571.37579"
         cy="138.49005"
         r="0.75048274" /><circle
         style="fill:#000000;fill-opacity:1;stroke-width:0.0509079;stroke-linecap:round;stroke-linejoin:round"
         id="circle36"
         cx="-571.37579"
         cy="138.49005"
         r="0.98757142" /><circle
         style="fill:#e92024;fill-opacity:1;stroke-width:0.0386863;stroke-linecap:round;stroke-linejoin:round"
         id="circle37"
         cx="-571.37579"
         cy="138.49005"
         r="0.75048274" /><circle
         style="fill:#000000;fill-opacity:1;stroke-width:0.0509079;stroke-linecap:round;stroke-linejoin:round"
         id="circle38"
         cx="-575.32605"
         cy="138.49005"
         r="0.98757142" /><circle
         style="fill:#e92024;fill-opacity:1;stroke-width:0.0386863;stroke-linecap:round;stroke-linejoin:round"
         id="circle39"
         cx="-575.32605"
         cy="138.49005"
         r="0.75048274" /><circle
         style="fill:#000000;fill-opacity:1;stroke-width:0.0509079;stroke-linecap:round;stroke-linejoin:round"
         id="circle40"
         cx="-575.32605"
         cy="138.49005"
         r="0.98757142" /><circle
         style="fill:#e92024;fill-opacity:1;stroke-width:0.0386863;stroke-linecap:round;stroke-linejoin:round"
         id="circle41"
         cx="-575.32605"
         cy="138.49005"
         r="0.75048274" /><circle
         style="fill:#000000;fill-opacity:1;stroke-width:0.0509079;stroke-linecap:round;stroke-linejoin:round"
         id="circle42"
         cx="-579.27637"
         cy="138.49005"
         r="0.98757142" /><circle
         style="fill:#e92024;fill-opacity:1;stroke-width:0.0386863;stroke-linecap:round;stroke-linejoin:round"
         id="circle43"
         cx="-579.27637"
         cy="138.49005"
         r="0.75048274" /><rect
         style="fill:#000000;fill-opacity:1;stroke-width:0.100235;stroke-linecap:round;stroke-linejoin:round"
         id="rect109"
         width="34.093006"
         height="1.4349681"
         x="-596.32288"
         y="135.0246"
         ry="0.71748406" /><rect
         style="fill:#ffffff;fill-opacity:1;stroke-width:0.0810362;stroke-linecap:round;stroke-linejoin:round"
         id="rect108"
         width="33.243294"
         height="0.9618721"
         x="-595.89801"
         y="135.26114"
         ry="0.48093605" /><circle
         style="fill:#000000;fill-opacity:1;stroke-width:0.25463;stroke-linecap:round;stroke-linejoin:round"
         id="circle4"
         cx="-596.35388"
         cy="145.44655"
         r="4.9395871" /><circle
         style="fill:#e92024;fill-opacity:1;stroke-width:0.216239;stroke-linecap:round;stroke-linejoin:round"
         id="path2"
         cx="-596.35388"
         cy="145.44655"
         r="4.1948595" /><circle
         style="fill:#fefefe;fill-opacity:1;stroke-width:0.136463;stroke-linecap:round;stroke-linejoin:round"
         id="circle2"
         cx="-596.35388"
         cy="145.44655"
         r="2.647258" /><circle
         style="fill:#000000;fill-opacity:1;stroke-width:0.103701;stroke-linecap:round;stroke-linejoin:round"
         id="circle3"
         cx="-596.35388"
         cy="145.44655"
         r="2.0117249" /><circle
         style="fill:#000000;fill-opacity:1;stroke-width:0.0632902;stroke-linecap:round;stroke-linejoin:round"
         id="circle111"
         cx="-579.27637"
         cy="127.44676"
         r="5.1157455" /><circle
         style="fill:#ed8133;fill-opacity:1;stroke-width:0.0551535;stroke-linecap:round;stroke-linejoin:round"
         id="circle112"
         cx="-579.27637"
         cy="127.44676"
         r="4.4580584" /><circle
         style="fill:#000000;fill-opacity:1;stroke-width:0.0465353;stroke-linecap:round;stroke-linejoin:round"
         id="circle113"
         cx="-584.66071"
         cy="133.19719"
         r="0.90274733" /><circle
         style="fill:#e92024;fill-opacity:1;stroke-width:0.0330002;stroke-linecap:round;stroke-linejoin:round"
         id="circle114"
         cx="-584.66071"
         cy="133.19719"
         r="0.64017779" /><g
         id="g150"
         transform="matrix(0.29294799,0,0,0.29294799,-824.08681,162.98592)"><path
           style="fill:#000000;fill-opacity:1;stroke-width:0.109803;stroke-linecap:round;stroke-linejoin:round"
           d="m 830.2762,-134.28212 v 8.82917 h 10.80561 v -8.82917 l -5.4028,4.41459 z"
           id="path125" /><path
           style="fill:#000000;fill-opacity:1;stroke-width:0.109803;stroke-linecap:round;stroke-linejoin:round"
           d="m 830.2762,-108.34907 v -8.82917 h 10.80561 v 8.82917 l -5.4028,-4.41459 z"
           id="path135" /><path
           style="fill:#000000;fill-opacity:1;stroke-width:0.109803;stroke-linecap:round;stroke-linejoin:round"
           d="m 848.64553,-126.7184 h -8.82917 v 10.80561 h 8.82917 l -4.41459,-5.4028 z"
           id="path136" /><path
           style="fill:#000000;fill-opacity:1;stroke-width:0.109803;stroke-linecap:round;stroke-linejoin:round"
           d="m 822.71248,-126.7184 h 8.82917 v 10.80561 h -8.82917 l 4.41459,-5.4028 z"
           id="path137" /><rect
           style="opacity:1;fill:#000000;fill-opacity:1;stroke-width:0.239668;stroke-linecap:round;stroke-linejoin:round"
           id="rect140"
           width="12.398314"
           height="12.398314"
           x="498.93207"
           y="-682.89648"
           ry="0"
           transform="rotate(45)" /><rect
           style="opacity:1;fill:#f8a223;fill-opacity:1;stroke-width:0.0951423;stroke-linecap:round;stroke-linejoin:round"
           id="rect119"
           width="4.9218149"
           height="4.9218149"
           x="499.42615"
           y="-682.4024"
           ry="0"
           transform="rotate(45)" /><circle
           style="fill:#ed8133;fill-opacity:1;stroke:none;stroke-width:0.0652353;stroke-linecap:round;stroke-linejoin:round;stroke-opacity:1"
           id="circle128"
           cx="830.27612"
           cy="-126.71845"
           r="1.2655014" /><circle
           style="fill:#000000;fill-opacity:1;stroke-width:0.0398935;stroke-linecap:round;stroke-linejoin:round"
           id="circle129"
           cx="830.27612"
           cy="-126.71845"
           r="0.77389872" /><rect
           style="opacity:1;fill:#f8a223;fill-opacity:1;stroke-width:0.0951423;stroke-linecap:round;stroke-linejoin:round"
           id="rect137"
           width="4.9218149"
           height="4.9218149"
           x="505.91437"
           y="-675.91418"
           ry="0"
           transform="rotate(45)" /><rect
           style="opacity:1;fill:#f8a223;fill-opacity:1;stroke-width:0.0951423;stroke-linecap:round;stroke-linejoin:round"
           id="rect138"
           width="4.9218149"
           height="4.9218149"
           x="-682.4024"
           y="-510.83624"
           ry="0"
           transform="rotate(135)" /><rect
           style="opacity:1;fill:#f8a223;fill-opacity:1;stroke-width:0.0951423;stroke-linecap:round;stroke-linejoin:round"
           id="rect139"
           width="4.9218149"
           height="4.9218149"
           x="-675.91418"
           y="-504.34796"
           ry="0"
           transform="rotate(135)" /><circle
           style="fill:#ed8133;fill-opacity:1;stroke:none;stroke-width:0.0652353;stroke-linecap:round;stroke-linejoin:round;stroke-opacity:1"
           id="circle144"
           cx="841.08179"
           cy="-126.71845"
           r="1.2655014" /><circle
           style="fill:#000000;fill-opacity:1;stroke-width:0.0398935;stroke-linecap:round;stroke-linejoin:round"
           id="circle145"
           cx="841.08179"
           cy="-126.71845"
           r="0.77389872" /><circle
           style="fill:#ed8133;fill-opacity:1;stroke:none;stroke-width:0.0652353;stroke-linecap:round;stroke-linejoin:round;stroke-opacity:1"
           id="circle147"
           cx="830.27618"
           cy="-115.91279"
           r="1.2655014" /><circle
           style="fill:#000000;fill-opacity:1;stroke-width:0.0398935;stroke-linecap:round;stroke-linejoin:round"
           id="circle148"
           cx="830.27618"
           cy="-115.91279"
           r="0.77389872" /><circle
           style="fill:#ed8133;fill-opacity:1;stroke:none;stroke-width:0.0652353;stroke-linecap:round;stroke-linejoin:round;stroke-opacity:1"
           id="circle149"
           cx="841.08185"
           cy="-115.91279"
           r="1.2655014" /><circle
           style="fill:#000000;fill-opacity:1;stroke-width:0.0398935;stroke-linecap:round;stroke-linejoin:round"
           id="circle150"
           cx="841.08185"
           cy="-115.91279"
           r="0.77389872" /></g><circle
         style="fill:#000000;fill-opacity:1;stroke-width:0.0327158;stroke-linecap:round;stroke-linejoin:round"
         id="circle246"
         cx="-579.29407"
         cy="133.42285"
         r="0.63465971" /><circle
         style="fill:#e92024;fill-opacity:1;stroke-width:0.0232002;stroke-linecap:round;stroke-linejoin:round"
         id="circle247"
         cx="-579.29407"
         cy="133.42285"
         r="0.45006505" /><path
         style="fill:none;fill-opacity:1;stroke:#1a1a1a;stroke-width:0.186142;stroke-linecap:round;stroke-linejoin:round;stroke-opacity:1"
         d="m -595.18078,156.44083 c 0,0 0.66237,2.90373 -2.66586,5.67392 -3.32824,2.77019 -5.35561,4.73364 -3.79996,8.858 2.71255,7.19146 22.35251,6.95772 22.35251,6.95772"
         id="path550" /><path
         style="fill:none;fill-opacity:1;stroke:#1a1a1a;stroke-width:0.186142;stroke-linecap:round;stroke-linejoin:round;stroke-opacity:1"
         d="m -595.18078,156.44083 c 0,0 1.15886,4.78328 -2.06298,7.12791 -3.22185,2.34464 -2.15854,6.79947 -0.11172,8.99986 4.65603,5.00548 18.06146,5.36187 18.06146,5.36187"
         id="path551" /><path
         style="fill:none;fill-opacity:1;stroke:#1a1a1a;stroke-width:0.186142;stroke-linecap:round;stroke-linejoin:round;stroke-opacity:1"
         d="m -563.37191,156.44083 c 0,0 -0.66238,2.90373 2.66585,5.67392 3.32824,2.77019 5.35562,4.73364 3.79996,8.858 -2.71253,7.19146 -22.35253,6.95772 -22.35253,6.95772"
         id="path552" /><path
         style="fill:none;fill-opacity:1;stroke:#1a1a1a;stroke-width:0.186142;stroke-linecap:round;stroke-linejoin:round;stroke-opacity:1"
         d="m -563.37191,156.44083 c 0,0 -1.15887,4.78328 2.06299,7.12791 3.22184,2.34464 2.15852,6.79947 0.11171,8.99986 -4.65602,5.00548 -18.06147,5.36187 -18.06147,5.36187"
         id="path553" /><path
         style="fill:#ee1c2a;fill-opacity:1;stroke-width:0.0930732;stroke-linecap:round;stroke-linejoin:round"
         d="m -579.29427,159.47366 a 0.37911405,0.37911405 0 0 0 -0.37907,0.37908 0.37911405,0.37911405 0 0 0 0.37907,0.37908 0.37911405,0.37911405 0 0 0 0.0178,-3.7e-4 0.37911405,0.37911405 0 0 0 0.0178,3.7e-4 0.37911405,0.37911405 0 0 0 0.37908,-0.37908 0.37911405,0.37911405 0 0 0 -0.37908,-0.37908 0.37911405,0.37911405 0 0 0 -0.0178,3.7e-4 0.37911405,0.37911405 0 0 0 -0.0178,-3.7e-4 z"
         id="path567" /></g></g></svg>
